<mxfile host="Electron" modified="2023-06-26T20:39:31.529Z" agent="Mozilla/5.0 (Windows NT 10.0; Win64; x64) AppleWebKit/537.36 (KHTML, like Gecko) draw.io/21.5.0 Chrome/112.0.5615.204 Electron/24.5.1 Safari/537.36" etag="OuPU6NxSicmpcpQtYart" version="21.5.0" type="device">
  <diagram id="R2lEEEUBdFMjLlhIrx00" name="Page-1">
    <mxGraphModel dx="2546" dy="950" grid="0" gridSize="10" guides="0" tooltips="0" connect="1" arrows="1" fold="1" page="0" pageScale="1" pageWidth="850" pageHeight="1100" background="#FFFFFF" math="0" shadow="0" extFonts="Permanent Marker^https://fonts.googleapis.com/css?family=Permanent+Marker">
      <root>
        <mxCell id="0" />
        <mxCell id="1" parent="0" />
        <mxCell id="c2ltnCM8b2KLd-yo1KHk-1" value="VehicleManufactures" style="rounded=0;whiteSpace=wrap;html=1;labelBackgroundColor=none;fontStyle=3;fontSize=22;fillColor=#FFE45E;strokeColor=#FF6392;fontColor=#000000;" parent="1" vertex="1">
          <mxGeometry x="123" y="139" width="254" height="60" as="geometry" />
        </mxCell>
        <mxCell id="c2ltnCM8b2KLd-yo1KHk-2" value="VehicleModels" style="rounded=0;whiteSpace=wrap;html=1;labelBackgroundColor=none;fontStyle=3;fontSize=22;fillColor=#FFE45E;strokeColor=#FF6392;fontColor=#000000;" parent="1" vertex="1">
          <mxGeometry x="730" y="121" width="170" height="80" as="geometry" />
        </mxCell>
        <mxCell id="c2ltnCM8b2KLd-yo1KHk-3" value="VehicleColours" style="rounded=0;whiteSpace=wrap;html=1;labelBackgroundColor=none;fontStyle=3;fontSize=22;fillColor=#FFE45E;strokeColor=#FF6392;fontColor=#000000;" parent="1" vertex="1">
          <mxGeometry x="1030" y="469" width="187" height="60" as="geometry" />
        </mxCell>
        <mxCell id="c2ltnCM8b2KLd-yo1KHk-4" value="VehiclesFeature" style="rounded=0;whiteSpace=wrap;html=1;labelBackgroundColor=none;fontStyle=3;fontSize=22;fillColor=#FFE45E;strokeColor=#FF6392;fontColor=#000000;" parent="1" vertex="1">
          <mxGeometry x="18" y="469" width="182" height="60" as="geometry" />
        </mxCell>
        <mxCell id="c2ltnCM8b2KLd-yo1KHk-5" value="VehiclesDetails" style="rounded=0;whiteSpace=wrap;html=1;labelBackgroundColor=none;fontStyle=3;fontSize=22;fillColor=#FFE45E;strokeColor=#FF6392;fontColor=#000000;" parent="1" vertex="1">
          <mxGeometry x="520" y="459" width="180" height="80" as="geometry" />
        </mxCell>
        <mxCell id="c2ltnCM8b2KLd-yo1KHk-6" value="VehicleFuelType" style="rounded=0;whiteSpace=wrap;html=1;labelBackgroundColor=none;fontStyle=3;fontSize=22;fillColor=#FFE45E;strokeColor=#FF6392;fontColor=#000000;" parent="1" vertex="1">
          <mxGeometry x="458" y="799" width="212" height="60" as="geometry" />
        </mxCell>
        <mxCell id="c2ltnCM8b2KLd-yo1KHk-7" value="" style="rhombus;whiteSpace=wrap;html=1;labelBackgroundColor=none;fontStyle=3;fontSize=22;fillColor=#FFE45E;strokeColor=#FF6392;fontColor=#000000;" parent="1" vertex="1">
          <mxGeometry x="530" y="629" width="80" height="80" as="geometry" />
        </mxCell>
        <mxCell id="c2ltnCM8b2KLd-yo1KHk-8" value="" style="rhombus;whiteSpace=wrap;html=1;labelBackgroundColor=none;rotation=-145;fontStyle=3;fontSize=22;fillColor=#FFE45E;strokeColor=#FF6392;fontColor=#000000;" parent="1" vertex="1">
          <mxGeometry x="670" y="275" width="80" height="80" as="geometry" />
        </mxCell>
        <mxCell id="c2ltnCM8b2KLd-yo1KHk-9" value="" style="rhombus;whiteSpace=wrap;html=1;labelBackgroundColor=none;fontStyle=3;fontSize=22;fillColor=#FFE45E;strokeColor=#FF6392;fontColor=#000000;" parent="1" vertex="1">
          <mxGeometry x="513" y="126" width="80" height="80" as="geometry" />
        </mxCell>
        <mxCell id="c2ltnCM8b2KLd-yo1KHk-10" value="" style="rhombus;whiteSpace=wrap;html=1;labelBackgroundColor=none;fontStyle=3;fontSize=22;fillColor=#FFE45E;strokeColor=#FF6392;fontColor=#000000;" parent="1" vertex="1">
          <mxGeometry x="891" y="459" width="80" height="80" as="geometry" />
        </mxCell>
        <mxCell id="c2ltnCM8b2KLd-yo1KHk-11" value="" style="rhombus;whiteSpace=wrap;html=1;labelBackgroundColor=none;fontStyle=3;fontSize=22;fillColor=#FFE45E;strokeColor=#FF6392;fontColor=#000000;" parent="1" vertex="1">
          <mxGeometry x="325" y="459" width="80" height="80" as="geometry" />
        </mxCell>
        <mxCell id="c2ltnCM8b2KLd-yo1KHk-16" value="" style="endArrow=none;html=1;rounded=0;entryX=0.5;entryY=0;entryDx=0;entryDy=0;exitX=0.5;exitY=0;exitDx=0;exitDy=0;labelBackgroundColor=none;fontColor=#000000;fontSize=22;fontStyle=3;strokeColor=#FF6392;" parent="1" source="c2ltnCM8b2KLd-yo1KHk-5" target="c2ltnCM8b2KLd-yo1KHk-8" edge="1">
          <mxGeometry width="50" height="50" relative="1" as="geometry">
            <mxPoint x="480" y="469" as="sourcePoint" />
            <mxPoint x="530" y="419" as="targetPoint" />
          </mxGeometry>
        </mxCell>
        <mxCell id="c2ltnCM8b2KLd-yo1KHk-17" value="" style="endArrow=none;html=1;rounded=0;entryX=0.5;entryY=1;entryDx=0;entryDy=0;exitX=0.5;exitY=1;exitDx=0;exitDy=0;labelBackgroundColor=none;fontColor=#000000;fontSize=22;fontStyle=3;strokeColor=#FF6392;" parent="1" source="c2ltnCM8b2KLd-yo1KHk-8" target="c2ltnCM8b2KLd-yo1KHk-2" edge="1">
          <mxGeometry width="50" height="50" relative="1" as="geometry">
            <mxPoint x="480" y="469" as="sourcePoint" />
            <mxPoint x="530" y="419" as="targetPoint" />
          </mxGeometry>
        </mxCell>
        <mxCell id="tZ6m9_Ii7N_a00idXifi-3" value="" style="endArrow=none;html=1;rounded=0;exitX=0;exitY=0.5;exitDx=0;exitDy=0;entryX=1;entryY=0.5;entryDx=0;entryDy=0;labelBackgroundColor=none;fontColor=#000000;fontSize=22;fontStyle=3;strokeColor=#FF6392;" edge="1" parent="1" source="c2ltnCM8b2KLd-yo1KHk-5" target="c2ltnCM8b2KLd-yo1KHk-11">
          <mxGeometry width="50" height="50" relative="1" as="geometry">
            <mxPoint x="500" y="389" as="sourcePoint" />
            <mxPoint x="550" y="339" as="targetPoint" />
          </mxGeometry>
        </mxCell>
        <mxCell id="tZ6m9_Ii7N_a00idXifi-4" value="" style="endArrow=none;html=1;rounded=0;exitX=0;exitY=0.5;exitDx=0;exitDy=0;entryX=1;entryY=0.5;entryDx=0;entryDy=0;labelBackgroundColor=none;fontColor=#000000;fontSize=22;fontStyle=3;strokeColor=#FF6392;" edge="1" parent="1" source="c2ltnCM8b2KLd-yo1KHk-11" target="c2ltnCM8b2KLd-yo1KHk-4">
          <mxGeometry width="50" height="50" relative="1" as="geometry">
            <mxPoint x="510" y="399" as="sourcePoint" />
            <mxPoint x="560" y="349" as="targetPoint" />
          </mxGeometry>
        </mxCell>
        <mxCell id="tZ6m9_Ii7N_a00idXifi-5" value="" style="endArrow=none;html=1;rounded=0;entryX=0;entryY=0.5;entryDx=0;entryDy=0;exitX=1;exitY=0.5;exitDx=0;exitDy=0;fontSize=22;fontStyle=3;labelBackgroundColor=none;strokeColor=#FF6392;fontColor=#000000;" edge="1" parent="1" source="c2ltnCM8b2KLd-yo1KHk-9" target="c2ltnCM8b2KLd-yo1KHk-2">
          <mxGeometry width="50" height="50" relative="1" as="geometry">
            <mxPoint x="390" y="354" as="sourcePoint" />
            <mxPoint x="440" y="304" as="targetPoint" />
          </mxGeometry>
        </mxCell>
        <mxCell id="tZ6m9_Ii7N_a00idXifi-6" value="" style="endArrow=none;html=1;rounded=0;entryX=0;entryY=0.5;entryDx=0;entryDy=0;exitX=1;exitY=0.5;exitDx=0;exitDy=0;fontSize=22;fontStyle=3;labelBackgroundColor=none;strokeColor=#FF6392;fontColor=#000000;" edge="1" parent="1" source="c2ltnCM8b2KLd-yo1KHk-1" target="c2ltnCM8b2KLd-yo1KHk-9">
          <mxGeometry width="50" height="50" relative="1" as="geometry">
            <mxPoint x="400" y="364" as="sourcePoint" />
            <mxPoint x="450" y="314" as="targetPoint" />
          </mxGeometry>
        </mxCell>
        <mxCell id="tZ6m9_Ii7N_a00idXifi-7" value="" style="endArrow=none;html=1;rounded=0;entryX=0.5;entryY=1;entryDx=0;entryDy=0;exitX=0.5;exitY=0;exitDx=0;exitDy=0;fontSize=22;fontStyle=3;labelBackgroundColor=none;strokeColor=#FF6392;fontColor=#000000;" edge="1" parent="1" source="c2ltnCM8b2KLd-yo1KHk-7" target="c2ltnCM8b2KLd-yo1KHk-5">
          <mxGeometry width="50" height="50" relative="1" as="geometry">
            <mxPoint x="410" y="374" as="sourcePoint" />
            <mxPoint x="460" y="324" as="targetPoint" />
          </mxGeometry>
        </mxCell>
        <mxCell id="tZ6m9_Ii7N_a00idXifi-8" value="" style="endArrow=none;html=1;rounded=0;exitX=0.5;exitY=1;exitDx=0;exitDy=0;entryX=0.5;entryY=0;entryDx=0;entryDy=0;fontSize=22;fontStyle=3;labelBackgroundColor=none;strokeColor=#FF6392;fontColor=#000000;" edge="1" parent="1" source="c2ltnCM8b2KLd-yo1KHk-7" target="c2ltnCM8b2KLd-yo1KHk-6">
          <mxGeometry width="50" height="50" relative="1" as="geometry">
            <mxPoint x="420" y="384" as="sourcePoint" />
            <mxPoint x="470" y="334" as="targetPoint" />
          </mxGeometry>
        </mxCell>
        <mxCell id="tZ6m9_Ii7N_a00idXifi-9" value="" style="endArrow=none;html=1;rounded=0;entryX=1;entryY=0.5;entryDx=0;entryDy=0;exitX=0;exitY=0.5;exitDx=0;exitDy=0;fontSize=22;fontStyle=3;labelBackgroundColor=none;strokeColor=#FF6392;fontColor=#000000;" edge="1" parent="1" source="c2ltnCM8b2KLd-yo1KHk-10" target="c2ltnCM8b2KLd-yo1KHk-5">
          <mxGeometry width="50" height="50" relative="1" as="geometry">
            <mxPoint x="430" y="394" as="sourcePoint" />
            <mxPoint x="480" y="344" as="targetPoint" />
          </mxGeometry>
        </mxCell>
        <mxCell id="tZ6m9_Ii7N_a00idXifi-10" value="" style="endArrow=none;html=1;rounded=0;entryX=0;entryY=0.5;entryDx=0;entryDy=0;exitX=1;exitY=0.5;exitDx=0;exitDy=0;fontSize=22;fontStyle=3;labelBackgroundColor=none;strokeColor=#FF6392;fontColor=#000000;" edge="1" parent="1" source="c2ltnCM8b2KLd-yo1KHk-10" target="c2ltnCM8b2KLd-yo1KHk-3">
          <mxGeometry width="50" height="50" relative="1" as="geometry">
            <mxPoint x="440" y="404" as="sourcePoint" />
            <mxPoint x="490" y="354" as="targetPoint" />
          </mxGeometry>
        </mxCell>
        <mxCell id="tZ6m9_Ii7N_a00idXifi-12" value="ColourName" style="ellipse;whiteSpace=wrap;html=1;fontSize=22;fontStyle=3;labelBackgroundColor=none;fillColor=#FFE45E;strokeColor=#FF6392;fontColor=#000000;" vertex="1" parent="1">
          <mxGeometry x="1206" y="342" width="146" height="72" as="geometry" />
        </mxCell>
        <mxCell id="tZ6m9_Ii7N_a00idXifi-13" value="id" style="ellipse;whiteSpace=wrap;html=1;fontSize=22;fontStyle=3;labelBackgroundColor=none;fillColor=#FFE45E;strokeColor=#FF6392;fontColor=#000000;" vertex="1" parent="1">
          <mxGeometry x="1141" y="613" width="100" height="50" as="geometry" />
        </mxCell>
        <mxCell id="tZ6m9_Ii7N_a00idXifi-14" value="id" style="ellipse;whiteSpace=wrap;html=1;fontSize=22;fontStyle=3;labelBackgroundColor=none;fillColor=#FFE45E;strokeColor=#FF6392;fontColor=#000000;" vertex="1" parent="1">
          <mxGeometry x="961" y="52" width="80" height="50" as="geometry" />
        </mxCell>
        <mxCell id="tZ6m9_Ii7N_a00idXifi-15" value="ModelName" style="ellipse;whiteSpace=wrap;html=1;fontSize=22;fontStyle=3;labelBackgroundColor=none;fillColor=#FFE45E;strokeColor=#FF6392;fontColor=#000000;" vertex="1" parent="1">
          <mxGeometry x="1077" y="139" width="154" height="60" as="geometry" />
        </mxCell>
        <mxCell id="tZ6m9_Ii7N_a00idXifi-16" value="id" style="ellipse;whiteSpace=wrap;html=1;fontSize=22;fontStyle=7;fontFamily=Comic Sans MS;labelBackgroundColor=none;fillColor=#FFE45E;strokeColor=#FF6392;fontColor=#000000;" vertex="1" parent="1">
          <mxGeometry x="-66" y="67" width="90" height="50" as="geometry" />
        </mxCell>
        <mxCell id="tZ6m9_Ii7N_a00idXifi-17" value="ModelName" style="ellipse;whiteSpace=wrap;html=1;fontSize=22;fontStyle=3;labelBackgroundColor=none;fillColor=#FFE45E;strokeColor=#FF6392;fontColor=#000000;" vertex="1" parent="1">
          <mxGeometry x="-129" y="210" width="159" height="81" as="geometry" />
        </mxCell>
        <mxCell id="tZ6m9_Ii7N_a00idXifi-18" value="ManufacturerID" style="ellipse;whiteSpace=wrap;html=1;fontSize=20;fontStyle=7;fontFamily=Comic Sans MS;labelBackgroundColor=none;fillColor=#FFE45E;strokeColor=#FF6392;fontColor=#000000;" vertex="1" parent="1">
          <mxGeometry x="971" y="229" width="170" height="50" as="geometry" />
        </mxCell>
        <mxCell id="tZ6m9_Ii7N_a00idXifi-20" value="FuelType" style="ellipse;whiteSpace=wrap;html=1;fontStyle=1;fontSize=22;labelBackgroundColor=none;fillColor=#FFE45E;strokeColor=#FF6392;fontColor=#000000;" vertex="1" parent="1">
          <mxGeometry x="610" y="915" width="120" height="60" as="geometry" />
        </mxCell>
        <mxCell id="tZ6m9_Ii7N_a00idXifi-21" value="id" style="ellipse;whiteSpace=wrap;html=1;fontStyle=5;fontSize=22;fontFamily=Comic Sans MS;labelBackgroundColor=none;fillColor=#FFE45E;strokeColor=#FF6392;fontColor=#000000;" vertex="1" parent="1">
          <mxGeometry x="470" y="920" width="80" height="50" as="geometry" />
        </mxCell>
        <mxCell id="tZ6m9_Ii7N_a00idXifi-22" value="id" style="ellipse;whiteSpace=wrap;html=1;fontStyle=1;fontSize=22;labelBackgroundColor=none;fillColor=#FFE45E;strokeColor=#FF6392;fontColor=#000000;" vertex="1" parent="1">
          <mxGeometry x="386" y="586" width="85" height="43" as="geometry" />
        </mxCell>
        <mxCell id="tZ6m9_Ii7N_a00idXifi-23" value="Feature_ID" style="ellipse;whiteSpace=wrap;html=1;fontStyle=5;fontSize=22;fontFamily=Comic Sans MS;labelBackgroundColor=none;fillColor=#FFE45E;strokeColor=#FF6392;fontColor=#000000;" vertex="1" parent="1">
          <mxGeometry x="274" y="659" width="138" height="69" as="geometry" />
        </mxCell>
        <mxCell id="tZ6m9_Ii7N_a00idXifi-24" value="Vehicle_ID" style="ellipse;whiteSpace=wrap;html=1;fontStyle=1;fontSize=22;labelBackgroundColor=none;fillColor=#FFE45E;strokeColor=#FF6392;fontColor=#000000;" vertex="1" parent="1">
          <mxGeometry x="130" y="586" width="144" height="69" as="geometry" />
        </mxCell>
        <mxCell id="tZ6m9_Ii7N_a00idXifi-28" value="Features" style="ellipse;whiteSpace=wrap;html=1;fontStyle=1;fontSize=22;labelBackgroundColor=none;fillColor=#FFE45E;strokeColor=#FF6392;fontColor=#000000;" vertex="1" parent="1">
          <mxGeometry x="-175" y="394" width="128" height="57" as="geometry" />
        </mxCell>
        <mxCell id="tZ6m9_Ii7N_a00idXifi-29" value="id" style="ellipse;whiteSpace=wrap;html=1;fontStyle=5;fontSize=22;fontFamily=Comic Sans MS;labelBackgroundColor=none;fillColor=#FFE45E;strokeColor=#FF6392;fontColor=#000000;" vertex="1" parent="1">
          <mxGeometry x="-153" y="529" width="84" height="57" as="geometry" />
        </mxCell>
        <mxCell id="tZ6m9_Ii7N_a00idXifi-30" value="id" style="ellipse;whiteSpace=wrap;html=1;fontStyle=1;fontSize=22;labelBackgroundColor=none;fillColor=#FFE45E;strokeColor=#FF6392;fontColor=#000000;" vertex="1" parent="1">
          <mxGeometry x="405" y="390" width="76" height="48" as="geometry" />
        </mxCell>
        <mxCell id="tZ6m9_Ii7N_a00idXifi-31" value="YearOfManufacture" style="ellipse;whiteSpace=wrap;html=1;fontStyle=1;fontSize=19;labelBackgroundColor=none;fillColor=#FFE45E;strokeColor=#FF6392;fontColor=#000000;" vertex="1" parent="1">
          <mxGeometry x="410" y="286" width="206" height="72" as="geometry" />
        </mxCell>
        <mxCell id="tZ6m9_Ii7N_a00idXifi-32" value="Price" style="ellipse;whiteSpace=wrap;html=1;fontStyle=1;fontSize=22;labelBackgroundColor=none;fillColor=#FFE45E;strokeColor=#FF6392;fontColor=#000000;" vertex="1" parent="1">
          <mxGeometry x="689" y="348" width="117" height="51" as="geometry" />
        </mxCell>
        <mxCell id="tZ6m9_Ii7N_a00idXifi-33" value="Model_ID" style="ellipse;whiteSpace=wrap;html=1;fontStyle=1;fontSize=22;labelBackgroundColor=none;fillColor=#FFE45E;strokeColor=#FF6392;fontColor=#000000;" vertex="1" parent="1">
          <mxGeometry x="755" y="554" width="142" height="51" as="geometry" />
        </mxCell>
        <mxCell id="tZ6m9_Ii7N_a00idXifi-34" value="FuelType_ID" style="ellipse;whiteSpace=wrap;html=1;fontStyle=1;fontSize=22;labelBackgroundColor=none;fillColor=#FFE45E;strokeColor=#FF6392;fontColor=#000000;" vertex="1" parent="1">
          <mxGeometry x="724" y="647" width="185" height="51" as="geometry" />
        </mxCell>
        <mxCell id="tZ6m9_Ii7N_a00idXifi-35" value="Colour_ID" style="ellipse;whiteSpace=wrap;html=1;fontStyle=1;fontSize=22;labelBackgroundColor=none;fillColor=#FFE45E;strokeColor=#FF6392;fontColor=#000000;" vertex="1" parent="1">
          <mxGeometry x="618" y="696" width="117" height="51" as="geometry" />
        </mxCell>
        <mxCell id="tZ6m9_Ii7N_a00idXifi-36" value="CurrentMileage" style="ellipse;whiteSpace=wrap;html=1;fontStyle=1;fontSize=22;labelBackgroundColor=none;fillColor=#FFE45E;strokeColor=#FF6392;fontColor=#000000;" vertex="1" parent="1">
          <mxGeometry x="743" y="403" width="181" height="70" as="geometry" />
        </mxCell>
        <mxCell id="tZ6m9_Ii7N_a00idXifi-38" value="" style="endArrow=none;html=1;rounded=0;entryX=0.5;entryY=1;entryDx=0;entryDy=0;exitX=0.344;exitY=0.017;exitDx=0;exitDy=0;exitPerimeter=0;labelBackgroundColor=none;strokeColor=#FF6392;fontColor=#000000;" edge="1" parent="1" source="c2ltnCM8b2KLd-yo1KHk-5" target="tZ6m9_Ii7N_a00idXifi-31">
          <mxGeometry width="50" height="50" relative="1" as="geometry">
            <mxPoint x="241" y="394" as="sourcePoint" />
            <mxPoint x="291" y="344" as="targetPoint" />
          </mxGeometry>
        </mxCell>
        <mxCell id="tZ6m9_Ii7N_a00idXifi-39" value="" style="endArrow=none;html=1;rounded=0;entryX=1;entryY=0.5;entryDx=0;entryDy=0;exitX=0.25;exitY=0;exitDx=0;exitDy=0;labelBackgroundColor=none;strokeColor=#FF6392;fontColor=#000000;" edge="1" parent="1" source="c2ltnCM8b2KLd-yo1KHk-5" target="tZ6m9_Ii7N_a00idXifi-30">
          <mxGeometry width="50" height="50" relative="1" as="geometry">
            <mxPoint x="251" y="404" as="sourcePoint" />
            <mxPoint x="301" y="354" as="targetPoint" />
          </mxGeometry>
        </mxCell>
        <mxCell id="tZ6m9_Ii7N_a00idXifi-40" value="" style="endArrow=none;html=1;rounded=0;entryX=0;entryY=1;entryDx=0;entryDy=0;exitX=0.75;exitY=0;exitDx=0;exitDy=0;labelBackgroundColor=none;strokeColor=#FF6392;fontColor=#000000;" edge="1" parent="1" source="c2ltnCM8b2KLd-yo1KHk-5" target="tZ6m9_Ii7N_a00idXifi-32">
          <mxGeometry width="50" height="50" relative="1" as="geometry">
            <mxPoint x="261" y="414" as="sourcePoint" />
            <mxPoint x="311" y="364" as="targetPoint" />
          </mxGeometry>
        </mxCell>
        <mxCell id="tZ6m9_Ii7N_a00idXifi-41" value="" style="endArrow=none;html=1;rounded=0;entryX=0;entryY=0.5;entryDx=0;entryDy=0;exitX=1;exitY=0;exitDx=0;exitDy=0;labelBackgroundColor=none;strokeColor=#FF6392;fontColor=#000000;" edge="1" parent="1" source="c2ltnCM8b2KLd-yo1KHk-5" target="tZ6m9_Ii7N_a00idXifi-36">
          <mxGeometry width="50" height="50" relative="1" as="geometry">
            <mxPoint x="271" y="424" as="sourcePoint" />
            <mxPoint x="321" y="374" as="targetPoint" />
          </mxGeometry>
        </mxCell>
        <mxCell id="tZ6m9_Ii7N_a00idXifi-42" value="" style="endArrow=none;html=1;rounded=0;entryX=0;entryY=0.5;entryDx=0;entryDy=0;exitX=0.75;exitY=1;exitDx=0;exitDy=0;labelBackgroundColor=none;strokeColor=#FF6392;fontColor=#000000;" edge="1" parent="1" source="c2ltnCM8b2KLd-yo1KHk-5" target="tZ6m9_Ii7N_a00idXifi-33">
          <mxGeometry width="50" height="50" relative="1" as="geometry">
            <mxPoint x="281" y="434" as="sourcePoint" />
            <mxPoint x="331" y="384" as="targetPoint" />
          </mxGeometry>
        </mxCell>
        <mxCell id="tZ6m9_Ii7N_a00idXifi-43" value="" style="endArrow=none;html=1;rounded=0;entryX=0;entryY=0;entryDx=0;entryDy=0;exitX=0.678;exitY=1.017;exitDx=0;exitDy=0;exitPerimeter=0;labelBackgroundColor=none;strokeColor=#FF6392;fontColor=#000000;" edge="1" parent="1" source="c2ltnCM8b2KLd-yo1KHk-5" target="tZ6m9_Ii7N_a00idXifi-34">
          <mxGeometry width="50" height="50" relative="1" as="geometry">
            <mxPoint x="291" y="444" as="sourcePoint" />
            <mxPoint x="341" y="394" as="targetPoint" />
          </mxGeometry>
        </mxCell>
        <mxCell id="tZ6m9_Ii7N_a00idXifi-44" value="" style="endArrow=none;html=1;rounded=0;entryX=0.5;entryY=0;entryDx=0;entryDy=0;exitX=0.611;exitY=1.033;exitDx=0;exitDy=0;exitPerimeter=0;labelBackgroundColor=none;strokeColor=#FF6392;fontColor=#000000;" edge="1" parent="1" source="c2ltnCM8b2KLd-yo1KHk-5" target="tZ6m9_Ii7N_a00idXifi-35">
          <mxGeometry width="50" height="50" relative="1" as="geometry">
            <mxPoint x="301" y="454" as="sourcePoint" />
            <mxPoint x="351" y="404" as="targetPoint" />
          </mxGeometry>
        </mxCell>
        <mxCell id="tZ6m9_Ii7N_a00idXifi-45" value="" style="endArrow=none;html=1;rounded=0;entryX=0.5;entryY=0;entryDx=0;entryDy=0;exitX=1;exitY=1;exitDx=0;exitDy=0;labelBackgroundColor=none;strokeColor=#FF6392;fontColor=#000000;" edge="1" parent="1" source="c2ltnCM8b2KLd-yo1KHk-11" target="tZ6m9_Ii7N_a00idXifi-22">
          <mxGeometry width="50" height="50" relative="1" as="geometry">
            <mxPoint x="311" y="464" as="sourcePoint" />
            <mxPoint x="361" y="414" as="targetPoint" />
          </mxGeometry>
        </mxCell>
        <mxCell id="tZ6m9_Ii7N_a00idXifi-46" value="" style="endArrow=none;html=1;rounded=0;exitX=0.5;exitY=0;exitDx=0;exitDy=0;entryX=0.5;entryY=1;entryDx=0;entryDy=0;labelBackgroundColor=none;strokeColor=#FF6392;fontColor=#000000;" edge="1" parent="1" source="tZ6m9_Ii7N_a00idXifi-23" target="c2ltnCM8b2KLd-yo1KHk-11">
          <mxGeometry width="50" height="50" relative="1" as="geometry">
            <mxPoint x="321" y="474" as="sourcePoint" />
            <mxPoint x="371" y="424" as="targetPoint" />
          </mxGeometry>
        </mxCell>
        <mxCell id="tZ6m9_Ii7N_a00idXifi-47" value="" style="endArrow=none;html=1;rounded=0;entryX=0;entryY=1;entryDx=0;entryDy=0;exitX=1;exitY=0;exitDx=0;exitDy=0;labelBackgroundColor=none;strokeColor=#FF6392;fontColor=#000000;" edge="1" parent="1" source="tZ6m9_Ii7N_a00idXifi-24" target="c2ltnCM8b2KLd-yo1KHk-11">
          <mxGeometry width="50" height="50" relative="1" as="geometry">
            <mxPoint x="331" y="484" as="sourcePoint" />
            <mxPoint x="381" y="434" as="targetPoint" />
          </mxGeometry>
        </mxCell>
        <mxCell id="tZ6m9_Ii7N_a00idXifi-48" value="" style="endArrow=none;html=1;rounded=0;entryX=0;entryY=0.5;entryDx=0;entryDy=0;exitX=1;exitY=0.5;exitDx=0;exitDy=0;labelBackgroundColor=none;strokeColor=#FF6392;fontColor=#000000;" edge="1" parent="1" source="tZ6m9_Ii7N_a00idXifi-29" target="c2ltnCM8b2KLd-yo1KHk-4">
          <mxGeometry width="50" height="50" relative="1" as="geometry">
            <mxPoint x="341" y="494" as="sourcePoint" />
            <mxPoint x="391" y="444" as="targetPoint" />
          </mxGeometry>
        </mxCell>
        <mxCell id="tZ6m9_Ii7N_a00idXifi-49" value="" style="endArrow=none;html=1;rounded=0;entryX=1;entryY=1;entryDx=0;entryDy=0;exitX=0;exitY=0.25;exitDx=0;exitDy=0;labelBackgroundColor=none;strokeColor=#FF6392;fontColor=#000000;" edge="1" parent="1" source="c2ltnCM8b2KLd-yo1KHk-4" target="tZ6m9_Ii7N_a00idXifi-28">
          <mxGeometry width="50" height="50" relative="1" as="geometry">
            <mxPoint x="351" y="504" as="sourcePoint" />
            <mxPoint x="401" y="454" as="targetPoint" />
          </mxGeometry>
        </mxCell>
        <mxCell id="tZ6m9_Ii7N_a00idXifi-50" value="" style="endArrow=none;html=1;rounded=0;entryX=0;entryY=0.75;entryDx=0;entryDy=0;exitX=0.675;exitY=0.029;exitDx=0;exitDy=0;exitPerimeter=0;labelBackgroundColor=none;strokeColor=#FF6392;fontColor=#000000;" edge="1" parent="1" source="tZ6m9_Ii7N_a00idXifi-17" target="c2ltnCM8b2KLd-yo1KHk-1">
          <mxGeometry width="50" height="50" relative="1" as="geometry">
            <mxPoint x="137" y="366" as="sourcePoint" />
            <mxPoint x="187" y="316" as="targetPoint" />
          </mxGeometry>
        </mxCell>
        <mxCell id="tZ6m9_Ii7N_a00idXifi-51" value="" style="endArrow=none;html=1;rounded=0;entryX=0;entryY=0.25;entryDx=0;entryDy=0;exitX=1;exitY=0.5;exitDx=0;exitDy=0;labelBackgroundColor=none;strokeColor=#FF6392;fontColor=#000000;" edge="1" parent="1" source="tZ6m9_Ii7N_a00idXifi-16" target="c2ltnCM8b2KLd-yo1KHk-1">
          <mxGeometry width="50" height="50" relative="1" as="geometry">
            <mxPoint x="147" y="376" as="sourcePoint" />
            <mxPoint x="197" y="326" as="targetPoint" />
          </mxGeometry>
        </mxCell>
        <mxCell id="tZ6m9_Ii7N_a00idXifi-52" value="" style="endArrow=none;html=1;rounded=0;entryX=0;entryY=1;entryDx=0;entryDy=0;exitX=1;exitY=0.25;exitDx=0;exitDy=0;labelBackgroundColor=none;strokeColor=#FF6392;fontColor=#000000;" edge="1" parent="1" source="c2ltnCM8b2KLd-yo1KHk-2" target="tZ6m9_Ii7N_a00idXifi-14">
          <mxGeometry width="50" height="50" relative="1" as="geometry">
            <mxPoint x="157" y="386" as="sourcePoint" />
            <mxPoint x="207" y="336" as="targetPoint" />
          </mxGeometry>
        </mxCell>
        <mxCell id="tZ6m9_Ii7N_a00idXifi-53" value="" style="endArrow=none;html=1;rounded=0;entryX=0;entryY=0.5;entryDx=0;entryDy=0;exitX=1;exitY=0.5;exitDx=0;exitDy=0;labelBackgroundColor=none;strokeColor=#FF6392;fontColor=#000000;" edge="1" parent="1" source="c2ltnCM8b2KLd-yo1KHk-2" target="tZ6m9_Ii7N_a00idXifi-15">
          <mxGeometry width="50" height="50" relative="1" as="geometry">
            <mxPoint x="167" y="396" as="sourcePoint" />
            <mxPoint x="217" y="346" as="targetPoint" />
          </mxGeometry>
        </mxCell>
        <mxCell id="tZ6m9_Ii7N_a00idXifi-54" value="" style="endArrow=none;html=1;rounded=0;entryX=0.433;entryY=0.047;entryDx=0;entryDy=0;exitX=1;exitY=0.75;exitDx=0;exitDy=0;entryPerimeter=0;labelBackgroundColor=none;strokeColor=#FF6392;fontColor=#000000;" edge="1" parent="1" source="c2ltnCM8b2KLd-yo1KHk-2" target="tZ6m9_Ii7N_a00idXifi-18">
          <mxGeometry width="50" height="50" relative="1" as="geometry">
            <mxPoint x="177" y="406" as="sourcePoint" />
            <mxPoint x="227" y="356" as="targetPoint" />
          </mxGeometry>
        </mxCell>
        <mxCell id="tZ6m9_Ii7N_a00idXifi-55" style="edgeStyle=orthogonalEdgeStyle;rounded=0;orthogonalLoop=1;jettySize=auto;html=1;exitX=0.5;exitY=1;exitDx=0;exitDy=0;labelBackgroundColor=none;strokeColor=#FF6392;fontColor=#000000;" edge="1" parent="1" source="tZ6m9_Ii7N_a00idXifi-13" target="tZ6m9_Ii7N_a00idXifi-13">
          <mxGeometry relative="1" as="geometry" />
        </mxCell>
        <mxCell id="tZ6m9_Ii7N_a00idXifi-56" value="" style="endArrow=none;html=1;rounded=0;entryX=0;entryY=1;entryDx=0;entryDy=0;exitX=0.75;exitY=0;exitDx=0;exitDy=0;labelBackgroundColor=none;strokeColor=#FF6392;fontColor=#000000;" edge="1" parent="1" source="c2ltnCM8b2KLd-yo1KHk-3" target="tZ6m9_Ii7N_a00idXifi-12">
          <mxGeometry width="50" height="50" relative="1" as="geometry">
            <mxPoint x="187" y="416" as="sourcePoint" />
            <mxPoint x="237" y="366" as="targetPoint" />
          </mxGeometry>
        </mxCell>
        <mxCell id="tZ6m9_Ii7N_a00idXifi-57" value="" style="endArrow=none;html=1;rounded=0;entryX=0.5;entryY=0;entryDx=0;entryDy=0;exitX=0.75;exitY=1;exitDx=0;exitDy=0;labelBackgroundColor=none;strokeColor=#FF6392;fontColor=#000000;" edge="1" parent="1" source="c2ltnCM8b2KLd-yo1KHk-3" target="tZ6m9_Ii7N_a00idXifi-13">
          <mxGeometry width="50" height="50" relative="1" as="geometry">
            <mxPoint x="197" y="426" as="sourcePoint" />
            <mxPoint x="247" y="376" as="targetPoint" />
          </mxGeometry>
        </mxCell>
        <mxCell id="tZ6m9_Ii7N_a00idXifi-58" value="" style="endArrow=none;html=1;rounded=0;entryX=0;entryY=0;entryDx=0;entryDy=0;exitX=0.616;exitY=1;exitDx=0;exitDy=0;exitPerimeter=0;labelBackgroundColor=none;strokeColor=#FF6392;fontColor=#000000;" edge="1" parent="1" source="c2ltnCM8b2KLd-yo1KHk-6" target="tZ6m9_Ii7N_a00idXifi-20">
          <mxGeometry width="50" height="50" relative="1" as="geometry">
            <mxPoint x="207" y="436" as="sourcePoint" />
            <mxPoint x="257" y="386" as="targetPoint" />
          </mxGeometry>
        </mxCell>
        <mxCell id="tZ6m9_Ii7N_a00idXifi-59" value="" style="endArrow=none;html=1;rounded=0;entryX=0.5;entryY=0;entryDx=0;entryDy=0;exitX=0.5;exitY=1;exitDx=0;exitDy=0;labelBackgroundColor=none;strokeColor=#FF6392;fontColor=#000000;" edge="1" parent="1" source="c2ltnCM8b2KLd-yo1KHk-6" target="tZ6m9_Ii7N_a00idXifi-21">
          <mxGeometry width="50" height="50" relative="1" as="geometry">
            <mxPoint x="217" y="446" as="sourcePoint" />
            <mxPoint x="267" y="396" as="targetPoint" />
          </mxGeometry>
        </mxCell>
        <mxCell id="tZ6m9_Ii7N_a00idXifi-60" value="id" style="ellipse;whiteSpace=wrap;html=1;fontStyle=5;fontSize=22;fontFamily=Comic Sans MS;labelBackgroundColor=none;fillColor=#FFE45E;strokeColor=#FF6392;fontColor=#000000;" vertex="1" parent="1">
          <mxGeometry x="405" y="390" width="76" height="48" as="geometry" />
        </mxCell>
        <mxCell id="tZ6m9_Ii7N_a00idXifi-61" value="id" style="ellipse;whiteSpace=wrap;html=1;fontStyle=5;fontSize=22;fontFamily=Comic Sans MS;labelBackgroundColor=none;fillColor=#FFE45E;strokeColor=#FF6392;fontColor=#000000;" vertex="1" parent="1">
          <mxGeometry x="386" y="586" width="85" height="43" as="geometry" />
        </mxCell>
        <mxCell id="tZ6m9_Ii7N_a00idXifi-62" value="id" style="ellipse;whiteSpace=wrap;html=1;fontSize=22;fontStyle=7;fontFamily=Comic Sans MS;labelBackgroundColor=none;fillColor=#FFE45E;strokeColor=#FF6392;fontColor=#000000;" vertex="1" parent="1">
          <mxGeometry x="1141" y="613" width="100" height="50" as="geometry" />
        </mxCell>
        <mxCell id="tZ6m9_Ii7N_a00idXifi-63" value="id" style="ellipse;whiteSpace=wrap;html=1;fontSize=22;fontStyle=7;fontFamily=Comic Sans MS;labelBackgroundColor=none;fillColor=#FFE45E;strokeColor=#FF6392;fontColor=#000000;" vertex="1" parent="1">
          <mxGeometry x="961" y="52" width="80" height="50" as="geometry" />
        </mxCell>
        <mxCell id="tZ6m9_Ii7N_a00idXifi-64" value="FuelType_ID" style="ellipse;whiteSpace=wrap;html=1;fontStyle=5;fontSize=22;fontFamily=Comic Sans MS;labelBackgroundColor=none;fillColor=#FFE45E;strokeColor=#FF6392;fontColor=#000000;" vertex="1" parent="1">
          <mxGeometry x="724" y="647" width="185" height="51" as="geometry" />
        </mxCell>
        <mxCell id="tZ6m9_Ii7N_a00idXifi-65" value="Model_ID" style="ellipse;whiteSpace=wrap;html=1;fontStyle=5;fontSize=22;fontFamily=Comic Sans MS;labelBackgroundColor=none;fillColor=#FFE45E;strokeColor=#FF6392;fontColor=#000000;" vertex="1" parent="1">
          <mxGeometry x="755" y="554" width="142" height="51" as="geometry" />
        </mxCell>
        <mxCell id="tZ6m9_Ii7N_a00idXifi-66" value="Colour_ID" style="ellipse;whiteSpace=wrap;html=1;fontStyle=5;fontSize=22;fontFamily=Comic Sans MS;labelBackgroundColor=none;fillColor=#FFE45E;strokeColor=#FF6392;fontColor=#000000;" vertex="1" parent="1">
          <mxGeometry x="618" y="696" width="117" height="51" as="geometry" />
        </mxCell>
        <mxCell id="tZ6m9_Ii7N_a00idXifi-67" value="Vehicle_ID" style="ellipse;whiteSpace=wrap;html=1;fontStyle=5;fontSize=22;fontFamily=Comic Sans MS;labelBackgroundColor=none;fillColor=#FFE45E;strokeColor=#FF6392;fontColor=#000000;" vertex="1" parent="1">
          <mxGeometry x="130" y="586" width="144" height="69" as="geometry" />
        </mxCell>
      </root>
    </mxGraphModel>
  </diagram>
</mxfile>
